<?xml version="1.0" standalone="no"?><!DOCTYPE svg PUBLIC "-//W3C//DTD SVG 1.1//EN" "http://www.w3.org/Graphics/SVG/1.1/DTD/svg11.dtd"><svg t="1629725689597" class="icon" viewBox="0 0 1024 1024" version="1.1" xmlns="http://www.w3.org/2000/svg" p-id="4300" xmlns:xlink="http://www.w3.org/1999/xlink" width="200" height="200"><defs><style type="text/css"></style></defs><path d="M832 928H192c-52.8 0-96-43.2-96-96V192c0-52.8 43.2-96 96-96h576c8 0 16 3.2 22.4 9.6l128 128c6.4 6.4 9.6 14.4 9.6 22.4v576c0 52.8-43.2 96-96 96zM192 160c-17.6 0-32 14.4-32 32v640c0 17.6 14.4 32 32 32h640c17.6 0 32-14.4 32-32V268.8L755.2 160H192z m544 768H288c-17.6 0-32-14.4-32-32V643.2c0-54.4 44.8-99.2 99.2-99.2h315.2c54.4 0 99.2 44.8 99.2 99.2V896c-1.6 17.6-16 32-33.6 32z m-416-64h384V643.2c0-19.2-16-35.2-35.2-35.2H355.2c-19.2 0-35.2 16-35.2 35.2V864z m315.2-448H388.8c-46.4 0-84.8-38.4-84.8-84.8V128c0-17.6 14.4-32 32-32h352c17.6 0 32 14.4 32 32v203.2c0 46.4-38.4 84.8-84.8 84.8zM368 160v171.2c0 11.2 9.6 20.8 20.8 20.8h246.4c11.2 0 20.8-9.6 20.8-20.8V160H368z m208 144c-17.6 0-32-14.4-32-32v-32c0-17.6 14.4-32 32-32s32 14.4 32 32v32c0 17.6-14.4 32-32 32z" p-id="4301"></path></svg>